<?xml version="1.0" encoding="utf-8"?>
<!-- Generated by IcoMoon.io -->
<!DOCTYPE svg PUBLIC "-//W3C//DTD SVG 1.1//EN" "http://www.w3.org/Graphics/SVG/1.1/DTD/svg11.dtd">
<svg version="1.1" xmlns="http://www.w3.org/2000/svg" xmlns:xlink="http://www.w3.org/1999/xlink" width="289" height="17" viewBox="0 0 289 17">
<svg id="icon-clock" width="17" height="17" viewBox="0 0 17 17" x="0" y="0">
<path d="M8.5 0.708q1.588 0 3.030 0.617t2.485 1.66 1.66 2.485 0.617 3.030-0.617 3.030-1.66 2.485-2.485 1.66-3.030 0.617-3.030-0.617-2.485-1.66-1.66-2.485-0.617-3.030 0.617-3.030 1.66-2.485 2.485-1.66 3.030-0.617zM8.5 2.125q-1.295 0-2.476 0.506t-2.034 1.359-1.359 2.034-0.506 2.476 0.506 2.476 1.359 2.034 2.034 1.359 2.476 0.506 2.476-0.506 2.034-1.359 1.359-2.034 0.506-2.476-0.506-2.476-1.359-2.034-2.034-1.359-2.476-0.506zM8.5 3.542q0.293 0 0.501 0.208t0.208 0.501v3.957l1.92 1.915q0.205 0.205 0.205 0.504t-0.205 0.504-0.504 0.205-0.504-0.205l-2.125-2.125q-0.205-0.205-0.205-0.504v-4.25q0-0.293 0.208-0.501t0.501-0.208z"></path>
</svg>
<svg id="icon-reply" width="17" height="17" viewBox="0 0 17 17" x="17" y="0">
<path d="M5.921 2.573q0.288 0 0.498 0.208t0.21 0.501-0.21 0.504l-3.298 3.298h6.796q1.295 0 2.476 0.504t2.034 1.359 1.359 2.034 0.506 2.479v0.708q0 0.293-0.208 0.501t-0.501 0.208q-0.288 0-0.498-0.21t-0.21-0.498v-0.708q0-1.007-0.393-1.926t-1.057-1.583-1.583-1.057-1.926-0.393h-6.796l3.298 3.304q0.21 0.21 0.21 0.498 0 0.293-0.208 0.504t-0.501 0.21-0.504-0.21l-4.505-4.51q-0.205-0.205-0.205-0.504 0-0.293 0.205-0.498l4.505-4.51q0.21-0.21 0.504-0.21z"></path>
</svg>
<svg id="icon-head" width="17" height="17" viewBox="0 0 17 17" x="34" y="0">
<path d="M8.5 0q1.157 0 2.133 0.57t1.547 1.547 0.57 2.133v2.125q0 0.885-0.343 1.677t-0.957 1.378q1.616 0.255 2.872 0.75t1.967 1.17 0.711 1.422v1.395q0 0.88-0.623 1.502t-1.502 0.623h-12.75q-0.88 0-1.502-0.623t-0.623-1.502v-1.4q0-0.747 0.711-1.422t1.965-1.17 2.869-0.744q-0.609-0.592-0.952-1.381t-0.343-1.674v-2.125q0-1.157 0.57-2.133t1.547-1.547 2.133-0.57zM8.5 10.625q-1.538 0-2.969 0.246t-2.493 0.689q-0.426 0.177-0.761 0.376t-0.509 0.36-0.263 0.279-0.089 0.191v1.4q0 0.293 0.208 0.501t0.501 0.208h12.75q0.293 0 0.501-0.208t0.208-0.501v-1.395q0-0.072-0.089-0.191t-0.263-0.279-0.509-0.36-0.761-0.382q-1.063-0.443-2.493-0.689t-2.969-0.246zM8.5 1.417q-1.173 0-2.003 0.83t-0.83 2.003v2.125q0 1.173 0.83 2.003t2.003 0.83 2.003-0.83 0.83-2.003v-2.125q0-1.173-0.83-2.003t-2.003-0.83z"></path>
</svg>
</svg>
